<svg xmlns="http://www.w3.org/2000/svg" xmlns:xlink="http://www.w3.org/1999/xlink" aria-hidden="true" focusable="false" width="1.01em" height="1em" style="vertical-align: -0.125em;-ms-transform: rotate(360deg); -webkit-transform: rotate(360deg); transform: rotate(360deg);" preserveAspectRatio="xMidYMid meet" viewBox="0 0 1025 1024" class="iconify" data-icon="whh:shoppingcartalt"><path fill="#FFFFFF" d="M961 128h-32L767 724q-4 18-23.5 31T705 768H225q-23 0-40-12.5T163 724L5 348q-10-37 3-64.5T49 256h19q19 0 35.5 13.5T125 302l132 338h416L844 45q5-19 20-32t33-13h64q27 0 45.5 19t18.5 45.5t-18.5 45T961 128zM641.5 384q-26.5 0-45.5-18.5t-19-45t19-45.5t45.5-19t45 19t18.5 45.5t-18.5 45t-45 18.5zm-.5 128.5q0 26.5-18.5 45t-45 18.5t-45.5-18.5t-19-45t19-45.5t45.5-19t45 19t18.5 45.5zM513.5 192q-26.5 0-45.5-18.5t-19-45T468 83t45.5-19t45 19t18.5 45.5t-18.5 45t-45 18.5zm-.5 128.5q0 26.5-18.5 45t-45 18.5t-45.5-18.5t-19-45t19-45.5t45.5-19t45 19t18.5 45.5zm-64 192q0 26.5-18.5 45t-45 18.5t-45.5-18.5t-19-45t19-45.5t45.5-19t45 19t18.5 45.5zM321.5 192q-26.5 0-45.5-18.5t-19-45T276 83t45.5-19t45 19t18.5 45.5t-18.5 45t-45 18.5zm-.5 128.5q0 26.5-18.5 45t-45 18.5t-45.5-18.5t-19-45t19-45.5t45.5-19t45 19t18.5 45.5zM294 832q40 0 68 28t28 68t-28 68t-68 28t-68-28t-28-68t28-68t68-28zm319.5 0q39.5 0 68 28t28.5 68t-28.5 68t-68 28t-67.5-28t-28-68t28-68t67.5-28z"></path></svg>